<?xml version="1.0" standalone="no"?>
<!DOCTYPE svg PUBLIC "-//W3C//DTD SVG 20010904//EN"
 "http://www.w3.org/TR/2001/REC-SVG-20010904/DTD/svg10.dtd">
<svg version="1.0" xmlns="http://www.w3.org/2000/svg"
 width="50.000000pt" height="50.000000pt" viewBox="0 0 50.000000 50.000000"
 preserveAspectRatio="xMidYMid meet">

<g transform="translate(0.000000,50.000000) scale(0.100000,-0.100000)"
fill="#fff" stroke="none">
<path d="M63 473 c-7 -2 -13 -11 -13 -19 0 -11 30 -14 170 -14 139 0 170 3
170 14 0 8 -7 17 -16 20 -19 7 -293 7 -311 -1z"  fill="#00A12A"/>
<path d="M43 408 c-25 -31 -44 -81 -38 -99 10 -29 50 -52 80 -45 16 4 35 0 51
-11 21 -13 32 -15 55 -6 21 8 37 8 58 0 23 -9 34 -7 54 6 17 11 36 15 56 11
23 -5 35 -1 55 19 32 32 32 41 3 92 l-23 40 -170 3 c-129 2 -174 -1 -181 -10z"  fill="#008924"/>
<path d="M40 157 c0 -110 6 -117 106 -117 l74 0 0 75 0 75 60 0 60 0 0 -75 c0
-58 3 -75 14 -75 34 0 46 29 46 117 l0 85 -47 -6 c-62 -9 -204 -9 -265 0 l-48
6 0 -85z m140 -7 l0 -40 -40 0 -40 0 0 40 0 40 40 0 40 0 0 -40z"/>
</g>
</svg>
